<?xml version="1.0" encoding="UTF-8"?>
<svg xmlns="http://www.w3.org/2000/svg" viewBox="0 0 183 60">
  <g id="a" data-name="Layer 1">
    <path d="M33.84,14.19c0,.68,0,1.37,0,2.05-.03,1.02-.09,2.03-.18,3.04-.19,2.12-.55,4.21-1.06,6.27-.61,2.46-1.44,4.83-2.49,7.14-1.02,2.25-2.22,4.39-3.61,6.43-.98,1.43-2.04,2.81-3.19,4.11-.75.84-1.51,1.68-2.33,2.46-1.45,1.38-2.96,2.68-4.58,3.85-.06.05-.13.09-.19.14-.07.05-.14.09-.22.11h-3.27s0,0-.01,0c-1.45-.05-2.83-.38-4.14-1-3.73-1.76-5.99-4.67-6.79-8.72-.09-.48-.13-.97-.16-1.45h0v-.76c0-.13,0-.25,0-.38.28-5.24,3.84-9.56,8.92-10.86.94-.24,1.91-.34,2.88-.35.2,0,.25-.06.28-.23.19-.89.46-1.75.79-2.6,1.8-4.56,4.87-8,9.22-10.28,2.37-1.25,4.91-1.94,7.59-2.12.7-.05,1.4-.06,2.1-.02.04,0,.07,0,.1,0,.11.02.16.11.17.24.06.47.09.94.11,1.41.02.5.09,1,.06,1.51Z" fill="#17a0fe" stroke-width="0"/>
    <path d="M15.13,49.78h-1.84c.61,0,1.22-.01,1.84,0Z" fill="#2496fe" stroke-width="0"/>
  </g>
  <g id="b" data-name="Layer 18">
    <path d="M50.82,28.72c-.17,1.04-.35,2.07-.59,3.09-.4,1.68-.94,3.31-1.6,4.9-.5,1.19-1.07,2.35-1.7,3.48-.66,1.19-1.4,2.33-2.21,3.43-.57.78-1.17,1.53-1.81,2.26-.31.36-.65.71-.96,1.07-.58.66-1.22,1.25-1.87,1.83-.28.25-.57.5-.88.75-.1.08-.19.16-.29.25H16c.08-.02.15-.06.22-.11.06-.05.13-.09.19-.14,1.62-1.17,3.14-2.47,4.58-3.85.82-.78,1.58-1.61,2.33-2.46,1.15-1.3,2.21-2.68,3.19-4.11,1.39-2.04,2.59-4.18,3.61-6.43,1.04-2.31,1.87-4.69,2.49-7.14.51-2.06.87-4.15,1.06-6.27.09-1.01.16-2.03.18-3.04,0-.68,0-1.37,0-2.05.03-.51-.04-1.01-.06-1.51-.02-.47-.05-.94-.11-1.41-.02-.13-.07-.22-.17-.24.94.05,1.87.15,2.79.33,3.17.62,6.01,1.94,8.53,3.96.34.27.65.57.99.85.13.1.13.17,0,.28-1.18.97-1.96,2.21-2.33,3.69-.94,3.76,1.61,7.67,5.43,8.34.64.11,1.28.13,1.93.09h0s0,.1,0,.14Z" fill="#2496fe" stroke-width="0"/>
  </g>
  <g id="c" data-name="Layer 17">
    <path d="M65.44,37.18c-.17,2.72-1.07,5.19-2.74,7.36-1.86,2.42-4.28,4.03-7.23,4.83-.91.25-1.84.41-2.79.42h0c-.17,0-.35,0-.52,0h-13.26c.1-.08.2-.17.29-.25.3-.25.59-.5.88-.75.65-.59,1.29-1.18,1.87-1.83.32-.36.65-.71.96-1.07.63-.73,1.24-1.48,1.81-2.26.8-1.1,1.54-2.24,2.21-3.43.63-1.13,1.2-2.29,1.7-3.48.66-1.59,1.2-3.23,1.6-4.9.25-1.02.43-2.05.59-3.09,0-.05,0-.09,0-.14h0c.6-.1,1.2-.21,1.78-.44,1.28-.51,2.32-1.32,3.12-2.43.04-.06.08-.11.16-.21,0,.39,0,.74.05,1.08.25,1.8,1.85,3.44,3.65,3.76,1.38.24,2.62-.05,3.73-.91.13-.1.17-.07.24.05.81,1.36,1.37,2.8,1.67,4.35.22,1.11.29,2.24.22,3.36Z" fill="#008dfe" stroke-width="0"/>
  </g>
  <g id="d" data-name="Layer 15">
    <path d="M59.33,18.18c-1.44-.04-2.54-1.18-2.5-2.6.04-1.42,1.2-2.5,2.66-2.46,1.36.04,2.45,1.23,2.41,2.62-.04,1.36-1.22,2.48-2.57,2.44h0Z" fill="#0095fe" stroke-width="0"/>
  </g>
  <g id="e" data-name="Layer 16">
    <path d="M65.24,13.29c-.87-.02-1.54-.72-1.52-1.58.02-.86.73-1.52,1.62-1.49.83.02,1.49.74,1.46,1.59-.03.83-.74,1.5-1.56,1.48h0Z" fill="#0095fe" stroke-width="0"/>
  </g>
  <g id="f" data-name="Layer 14">
    <path d="M65.6,17.31c1.05,0,1.87.83,1.86,1.88,0,1.04-.84,1.87-1.89,1.86-1.03,0-1.85-.84-1.85-1.87,0-1.06.82-1.87,1.87-1.87Z" fill="#0095fe" stroke-width="0"/>
  </g>
  <g id="g" data-name="Layer 13">
    <path d="M60.46,29.39c-2,0-3.63-1.61-3.63-3.59,0-2.05,1.61-3.67,3.66-3.66,2.09,0,3.65,1.78,3.6,3.71-.05,1.94-1.65,3.54-3.63,3.54h0Z" fill="#0095fe" stroke-width="0"/>
  </g>
  <g id="h" data-name="Layer 12">
    <path d="M50.13,27.42c-3.17,0-5.71-2.56-5.7-5.75,0-3.19,2.69-5.78,5.89-5.69,3.1.09,5.62,2.7,5.55,5.88-.06,3.03-2.62,5.56-5.73,5.56h0Z" fill="#0095fe" stroke-width="0"/>
  </g>
  <g id="i" data-name="Layer 11">
    <path d="M73.36,36.99c0,.65,0,1.31,0,1.96.02,1.05.73,1.74,1.77,1.75.27,0,.53,0,.8-.05.78-.14,1.2-.54,1.35-1.31.06-.33.11-.65.1-.99,0-.14.04-.17.17-.17,1.07,0,2.13,0,3.2-.02.14,0,.19.03.19.18-.05,2.96-1.93,4.99-4.62,5.29-1.35.15-2.7.09-3.97-.47-1.96-.87-3.01-2.4-3.2-4.52-.09-1.08-.09-2.16,0-3.24.16-2.03,1.22-3.49,2.99-4.44.89-.48,1.85-.69,2.86-.7.84,0,1.67.01,2.48.27,1.83.58,2.9,1.84,3.31,3.69.1.46.14.93.15,1.41,0,.14-.04.17-.17.17-1.12,0-2.24,0-3.36,0-.15,0-.18-.06-.18-.19-.01-.38-.04-.75-.13-1.12-.17-.68-.59-1.1-1.29-1.21-.37-.06-.74-.08-1.1.02-.79.21-1.31.85-1.33,1.67-.01.67,0,1.34,0,2.01h0Z" fill="#0095fe" stroke-width="0"/>
  </g>
  <g id="j" data-name="Layer 9">
    <path d="M82.35,36.65c0-2.2,0-4.4,0-6.6,0-.2.05-.25.25-.25,1.1.01,2.19,0,3.29,0,.16,0,.21.03.21.21,0,4.42,0,8.85,0,13.27,0,.17-.04.21-.21.21-1.1,0-2.19-.01-3.29,0-.23,0-.25-.08-.25-.27,0-2.19,0-4.39,0-6.58h0Z" fill="#0095fe" stroke-width="0"/>
  </g>
  <g id="k" data-name="Layer 10">
    <path d="M98.04,37.88c-.21-2-1.29-3.32-3.16-4-1.05-.38-2.15-.37-3.23-.22-1.83.26-3.16,1.23-3.86,2.97-.36.89-.36,1.83-.28,2.77.13,1.46.81,2.62,2.03,3.44.98.66,2.07.88,3.17.84.53,0,1.01,0,1.47-.1,1.67-.34,2.89-1.26,3.54-2.85.38-.92.4-1.89.3-2.86h0ZM94.06,40.08c0,.74-.56,1.29-1.28,1.29-.72,0-1.29-.55-1.29-1.29,0-.96,0-1.92,0-2.88,0-.74.57-1.3,1.31-1.29.72,0,1.26.56,1.26,1.31,0,.47,0,.95,0,1.42s0,.96,0,1.44Z" fill="#0095fe" stroke-width="0"/>
  </g>
  <g id="l" data-name="Layer 8">
    <path d="M110.12,41.23c0,.66,0,1.29,0,1.92,0,.12-.07.16-.16.21-.34.18-.71.27-1.08.3-.62.06-1.23.05-1.83-.08-.78-.17-1.29-.65-1.6-1.4-.23.32-.48.61-.79.84-1.17.89-3.07.93-4.17.09-.75-.58-1.06-1.38-1.07-2.3-.02-2.26,0-4.53,0-6.79,0-.18.05-.22.23-.22,1.1,0,2.19,0,3.29,0,.2,0,.22.07.22.24,0,1.9,0,3.8,0,5.7,0,.23.02.46.1.67.12.32.33.53.68.58.38.05.71-.03.95-.35.19-.25.26-.53.26-.84,0-1.92,0-3.83,0-5.75,0-.21.05-.26.26-.26,1.07.01,2.13.01,3.2,0,.23,0,.3.04.3.29-.01,2.2,0,4.4,0,6.6,0,.29.07.53.36.65.17.07.34.05.51.01.11-.03.22-.07.37-.12h0Z" fill="#0095fe" stroke-width="0"/>
  </g>
  <g id="m" data-name="Layer 7">
    <path d="M120.95,30.04c0-.18-.04-.24-.23-.24-1.08,0-2.16,0-3.24,0-.21,0-.28.04-.27.27.01,1.47,0,2.93,0,4.4v.27c-.11-.13-.19-.22-.27-.31-.84-.87-1.88-.98-2.98-.75-1.43.3-2.31,1.26-2.75,2.6-.49,1.48-.43,3-.11,4.51.17.83.52,1.58,1.19,2.13.97.79,2.1.88,3.27.69.84-.14,1.47-.66,2.07-1.28.09.33.19.64.26.95.04.17.11.22.29.22.84-.01,1.69-.01,2.53,0,.2,0,.25-.05.25-.25,0-4.4,0-8.81,0-13.21ZM117.19,40.24c0,.3-.14.56-.35.78-.5.52-1.29.46-1.7-.13-.17-.24-.25-.5-.25-.8,0-.47,0-.95,0-1.42,0-.49,0-.98,0-1.47.01-.6.43-1.11.97-1.21.59-.11,1.18.32,1.31.96,0,.05.02.09.02.14.04,1.05.03,2.1,0,3.14h0Z" fill="#0095fe" stroke-width="0"/>
  </g>
  <g id="n" data-name="Layer 6">
    <path d="M132.39,39.82c-.95,0-1.91,0-2.86,0-.22,0-.36.11-.4.34-.01.06-.02.12-.04.19-.16.64-.63,1-1.31,1.01-.73,0-1.1-.26-1.28-.96-.09-.34-.12-.7-.14-1.05-.01-.19.06-.22.23-.22.97,0,1.94,0,2.91,0s1.94,0,2.91,0c.18,0,.23-.05.22-.23-.02-.48.01-.96-.03-1.44-.14-1.57-.9-2.71-2.32-3.43-1.31-.66-4.28-.63-5.73.24-1.13.68-1.84,1.63-2.09,2.92-.16.87-.16,1.74-.04,2.61.2,1.46.97,2.54,2.27,3.23,1.01.54,2.11.66,3.23.64,1.03-.02,2.02-.21,2.91-.77,1.05-.66,1.67-1.6,1.77-2.86.01-.17-.03-.23-.22-.22h0ZM127.24,35.95c.8-.26,1.55.22,1.67,1.05.04.31-.09.46-.4.46h-.85c-.38,0-.76,0-1.14,0-.08,0-.15.01-.16-.11-.06-.57.34-1.23.88-1.41h0Z" fill="#0095fe" stroke-width="0"/>
  </g>
  <g id="o" data-name="Layer 5">
    <path d="M181.24,41.23c-.15.05-.27.1-.4.12-.49.1-.8-.13-.83-.63,0-.09,0-.19,0-.28,0-1.28,0-2.56,0-3.83,0-.39-.08-.75-.25-1.09-.46-.9-1.22-1.42-2.18-1.67-1.27-.33-2.56-.3-3.85-.16-.83.09-1.6.36-2.27.86-.69.5-1.1,1.16-1.08,2.04,0,.16.05.2.2.2,1.07,0,2.15,0,3.22,0,.13,0,.18-.04.19-.17.03-.35.25-.55.55-.68.34-.14.69-.15,1.04-.07.58.13.81.43.81,1.02,0,.15,0,.3,0,.45,0,.12-.04.16-.16.16-.28,0-.55.01-.83.02-.87.03-1.75.1-2.6.31-.31.07-.61.17-.9.29-1.52.66-1.99,1.85-1.76,3.45.12.83.58,1.45,1.34,1.77,1.32.57,2.63.49,3.89-.19.45-.25.84-.58,1.21-.97.25.79.82,1.18,1.55,1.38.62.17,1.25.17,1.88.11.38-.03.75-.12,1.09-.3.08-.04.16-.07.16-.18,0-.64,0-1.29,0-1.95h0ZM176.38,39.41c-.01.13,0,.25,0,.38,0,.09,0,.17,0,.26,0,.51-.19.91-.63,1.16-.47.26-.96.23-1.42-.02-.43-.23-.46-.97-.07-1.37.32-.34.75-.45,1.19-.52.25-.04.5-.06.75-.06.14,0,.2.03.19.18h0Z" fill="#0095fe" stroke-width="0"/>
  </g>
  <g id="p" data-name="Layer 4">
    <path d="M163.2,39.08c0-.9,0-1.64,0-2.39,0-.17-.05-.22-.21-.21-.23.01-.46,0-.69,0-.13,0-.16-.04-.16-.16,0-.79,0-1.58,0-2.37,0-.13.03-.18.17-.17.28.01.57,0,.85,0,.14,0,.21-.04.26-.17.37-.91.76-1.81,1.13-2.73.06-.16.14-.21.31-.21.62,0,1.25,0,1.87,0,.16,0,.2.04.2.2,0,.89,0,1.78,0,2.67,0,.19.06.23.24.23.61-.01,1.22,0,1.82,0,.16,0,.22.03.21.2,0,.77,0,1.55,0,2.32,0,.15-.04.19-.19.18-.62,0-1.25,0-1.87,0-.16,0-.22.03-.22.2,0,1.16,0,2.32,0,3.48,0,.15.02.3.05.45.09.46.43.74.92.76.38.02.74-.05,1.09-.16.15-.05.17,0,.17.13,0,.6,0,1.2,0,1.8,0,.16-.09.2-.21.23-.87.25-1.76.36-2.66.32-.64-.02-1.27-.1-1.86-.39-.73-.36-1.13-.96-1.21-1.77-.09-.87-.01-1.75-.04-2.46h0Z" fill="#0095fe" stroke-width="0"/>
  </g>
  <g id="q" data-name="Layer 3">
    <path d="M161.59,41.23c-.15.05-.27.1-.4.12-.49.1-.8-.13-.83-.63,0-.09,0-.19,0-.28,0-1.28,0-2.56,0-3.83,0-.39-.08-.75-.25-1.09-.46-.9-1.22-1.42-2.18-1.67-1.27-.33-2.56-.3-3.85-.16-.83.09-1.6.36-2.27.86-.7.51-1.11,1.17-1.08,2.07,0,.13.04.18.18.17,1.08,0,2.16,0,3.24,0,.13,0,.18-.04.19-.16.03-.35.25-.56.55-.68.39-.16.8-.16,1.2-.03.45.15.64.42.66.9,0,.17,0,.35,0,.52,0,.12-.04.16-.16.16-.28,0-.57.01-.85.02-.93.04-1.86.11-2.76.35-.67.18-1.3.45-1.79.96-.75.79-.83,1.75-.68,2.76.12.82.58,1.43,1.33,1.75,1.32.57,2.63.5,3.89-.19.45-.25.84-.57,1.21-.97.25.82.84,1.2,1.59,1.39.6.15,1.22.15,1.83.1.38-.03.75-.12,1.09-.3.07-.04.16-.07.16-.18,0-.64,0-1.29,0-1.95ZM156.73,39.79c0,.2.01.41-.03.61-.2.9-1.38,1.31-2.11.73-.34-.27-.34-.96.01-1.32.25-.26.58-.38.91-.46.35-.08.7-.11,1.05-.12.13,0,.17.03.16.16,0,.13,0,.27,0,.4h0Z" fill="#0095fe" stroke-width="0"/>
  </g>
  <g id="r" data-name="Layer 2">
    <path d="M149.42,36.02c0-.33-.01-.66-.07-.99-.46-2.8-2.88-4.45-5.21-4.53-2.03-.07-4.06-.02-6.08-.03-.2,0-.17.11-.17.23v6.3c0,2.08,0,4.17,0,6.25,0,.2.04.26.25.26,1.85,0,3.71,0,5.56,0,.83,0,1.63-.15,2.38-.52,1.9-.93,3.04-2.43,3.3-4.55.1-.8.02-1.61.04-2.41h0ZM145.16,38.63c0,1.04-.81,1.85-1.84,1.85-.39,0-.79-.01-1.18,0-.2,0-.27-.04-.26-.25.01-1.09,0-2.18,0-3.27s0-2.19,0-3.29c0-.17.04-.23.22-.23.49.02.98-.01,1.47.02.93.07,1.6.8,1.6,1.73,0,1.14,0,2.29,0,3.43h0Z" fill="#0095fe" stroke-width="0"/>
  </g>
</svg>