<?xml version="1.0" encoding="UTF-8"?>
<svg xmlns="http://www.w3.org/2000/svg" viewBox="0 0 32 32">
  <g id="a" data-name="Layer 1">
    <path d="M15.66,7.69c0,.33,0,.66,0,1-.01.49-.04.99-.09,1.48-.09,1.03-.27,2.04-.52,3.05-.3,1.19-.7,2.35-1.21,3.47-.49,1.09-1.08,2.13-1.75,3.12-.48.7-.99,1.36-1.55,2-.36.41-.73.82-1.13,1.19-.7.67-1.44,1.3-2.23,1.87-.03.02-.06.04-.09.07-.03.02-.07.04-.1.05h-1.59s0,0,0,0c-.7-.02-1.38-.19-2.01-.48-1.81-.85-2.91-2.27-3.3-4.24C.03,20.03.01,19.8,0,19.56h0v-.37c0-.06,0-.12,0-.18.14-2.54,1.86-4.65,4.33-5.28.46-.12.93-.17,1.4-.17.1,0,.12-.03.14-.11.09-.43.22-.85.38-1.26.88-2.22,2.37-3.89,4.48-5,1.15-.61,2.39-.94,3.69-1.03.34-.02.68-.03,1.02-.01.02,0,.03,0,.05,0,.05.01.08.05.08.12.03.23.05.46.06.69.01.24.04.49.03.73Z" fill="#17a0fe" stroke-width="0"/>
    <path d="M6.57,24.98h-.89c.3,0,.6,0,.89,0Z" fill="#2496fe" stroke-width="0"/>
  </g>
  <g id="b" data-name="Layer 18">
    <path d="M23.91,14.75c-.08.5-.17,1.01-.29,1.5-.2.81-.46,1.61-.78,2.38-.24.58-.52,1.14-.83,1.69-.32.58-.68,1.13-1.07,1.67-.28.38-.57.75-.88,1.1-.15.18-.31.34-.47.52-.28.32-.59.61-.91.89-.14.12-.28.24-.43.36-.05.04-.09.08-.14.12H6.99s.07-.03.1-.05c.03-.02.06-.04.09-.07.79-.57,1.52-1.2,2.23-1.87.4-.38.77-.78,1.13-1.19.56-.63,1.07-1.3,1.55-2,.68-.99,1.26-2.03,1.75-3.12.51-1.12.91-2.28,1.21-3.47.25-1,.42-2.02.52-3.05.04-.49.08-.98.09-1.48,0-.33,0-.66,0-1,.01-.25-.02-.49-.03-.73,0-.23-.02-.46-.06-.69,0-.06-.03-.1-.08-.12.46.02.91.07,1.35.16,1.54.3,2.92.94,4.14,1.93.16.13.32.28.48.41.06.05.06.08,0,.13-.57.47-.95,1.07-1.13,1.8-.46,1.83.78,3.73,2.64,4.05.31.05.62.06.94.04h0s0,.05,0,.07Z" fill="#2496fe" stroke-width="0"/>
  </g>
  <g id="c" data-name="Layer 17">
    <path d="M31.01,18.86c-.08,1.32-.52,2.52-1.33,3.57-.9,1.17-2.08,1.96-3.51,2.35-.44.12-.89.2-1.36.2h0c-.08,0-.17,0-.25,0h-6.44s.1-.08.14-.12c.15-.12.29-.24.43-.36.32-.28.63-.57.91-.89.15-.17.32-.34.47-.52.31-.35.6-.72.88-1.1.39-.53.75-1.09,1.07-1.67.31-.55.58-1.11.83-1.69.32-.77.58-1.57.78-2.38.12-.5.21-1,.29-1.5,0-.02,0-.05,0-.07h0c.29-.05.59-.1.86-.21.62-.25,1.13-.64,1.52-1.18.02-.03.04-.05.08-.1,0,.19,0,.36.03.53.12.88.9,1.67,1.77,1.83.67.12,1.27-.03,1.81-.44.06-.05.08-.03.12.03.39.66.66,1.36.81,2.12.11.54.14,1.09.11,1.63Z" fill="#008dfe" stroke-width="0"/>
  </g>
  <g id="d" data-name="Layer 15">
    <path d="M28.05,9.63c-.7-.02-1.23-.57-1.21-1.26.02-.69.58-1.22,1.29-1.19.66.02,1.19.6,1.17,1.27-.02.66-.59,1.2-1.25,1.19h0Z" fill="#0095fe" stroke-width="0"/>
  </g>
  <g id="e" data-name="Layer 16">
    <path d="M30.92,7.25c-.42-.01-.75-.35-.74-.77.01-.42.36-.74.79-.73.4.01.72.36.71.77-.01.4-.36.73-.76.72h0Z" fill="#0095fe" stroke-width="0"/>
  </g>
  <g id="f" data-name="Layer 14">
    <path d="M31.09,9.2c.51,0,.91.4.91.91,0,.51-.41.91-.92.9-.5,0-.9-.41-.9-.91,0-.51.4-.91.91-.91Z" fill="#0095fe" stroke-width="0"/>
  </g>
  <g id="g" data-name="Layer 13">
    <path d="M28.6,15.08c-.97,0-1.76-.78-1.76-1.74,0-1,.78-1.78,1.78-1.78,1.02,0,1.77.86,1.75,1.8-.02.94-.8,1.72-1.77,1.72h0Z" fill="#0095fe" stroke-width="0"/>
  </g>
  <g id="h" data-name="Layer 12">
    <path d="M23.57,14.12c-1.54,0-2.77-1.24-2.77-2.79,0-1.55,1.31-2.81,2.86-2.76,1.51.04,2.73,1.31,2.7,2.86-.03,1.47-1.27,2.7-2.79,2.7h0Z" fill="#0095fe" stroke-width="0"/>
  </g>
</svg>